<svg xmlns="http://www.w3.org/2000/svg" viewBox="0 0 24 24" width="200" height="200">
  <!-- Gradient definition -->
  <defs>
    <linearGradient id="sociallyGradient" x1="0%" y1="0%" x2="100%" y2="100%">
      <stop offset="0%" stop-color="#6366F1" />
      <stop offset="100%" stop-color="#9333EA" />
    </linearGradient>
  </defs>
  
  <!-- Background shape (optional) -->
  <rect x="1" y="1" width="22" height="22" rx="5" fill="white" stroke="url(#sociallyGradient)" stroke-width="0.5" />
  
  <!-- Main logo path -->
  <path d="M18 3a3 3 0 0 0-3 3v12a3 3 0 0 0 3 3 3 3 0 0 0 3-3 3 3 0 0 0-3-3H6a3 3 0 0 0-3 3 3 3 0 0 0 3 3 3 3 0 0 0 3-3V6a3 3 0 0 0-3-3 3 3 0 0 0-3 3 3 3 0 0 0 3 3h12a3 3 0 0 0 3-3 3 3 0 0 0-3-3z" 
        fill="none" 
        stroke="url(#sociallyGradient)" 
        stroke-width="1.5" 
        stroke-linecap="round" 
        stroke-linejoin="round" />
</svg>